<svg version="1.1" xmlns="http://www.w3.org/2000/svg" xmlns:xlink="http://www.w3.org/1999/xlink" x="0px" y="0px"
     viewBox="0 0 21.436 21.436" style="enable-background:new 0 0 21.436 21.436;" xml:space="preserve">
<g>
	<g>
		<circle style="fill:#030104;" cx="10.719" cy="14.163" r="2.627"/>
        <path style="fill:#030104;" d="M10.718,7.95c-4.071,0-7.385,3.313-7.385,7.387c0,0,0,0.184,0,0.281
			c0,0.613,0.352,1.111,0.785,1.111c0.433,0,0.784-0.498,0.784-1.111c0-0.098,0-0.281,0-0.281c0-3.209,2.609-5.818,5.816-5.818
			c3.208,0,5.817,2.609,5.817,5.818c0,0,0,0.184,0,0.283c0,0.613,0.352,1.109,0.784,1.109c0.432,0,0.784-0.496,0.784-1.109
			c0-0.1,0-0.283,0-0.283C18.103,11.264,14.79,7.95,10.718,7.95z"/>
        <path style="fill:#030104;" d="M10.718,4.646C4.808,4.646,0,9.454,0,15.364c0,0,0,0.188,0,0.287c0,0.613,0.351,1.111,0.785,1.111
			c0.433,0,0.784-0.498,0.784-1.111c0-0.1,0-0.287,0-0.287c0-5.045,4.104-9.149,9.149-9.149c5.046,0,9.15,4.104,9.15,9.149
			c0,0,0,0.205,0,0.314c0,0.613,0.351,1.111,0.784,1.111c0.433,0,0.784-0.498,0.784-1.111c0-0.109,0-0.314,0-0.314
			C21.436,9.454,16.629,4.646,10.718,4.646z"/>
	</g>
</g>
</svg>
